<svg width="112" height="5" viewBox="0 0 112 5" fill="none" xmlns="http://www.w3.org/2000/svg">
<path d="M111.3 4.56143C108.536 4.56143 107.083 3.79254 105.8 3.11328C104.554 2.45289 103.479 1.88684 101.182 1.88684C98.8844 1.88684 97.8089 2.45761 96.5636 3.11328C95.2806 3.79254 93.8277 4.56143 91.0635 4.56143C88.2993 4.56143 86.8464 3.79254 85.5633 3.11328C84.318 2.45289 83.2425 1.88684 80.9453 1.88684C78.6481 1.88684 77.5773 2.45761 76.3273 3.11328C75.0442 3.79254 73.5914 4.56143 70.8272 4.56143C68.0629 4.56143 66.6101 3.79254 65.327 3.11328C64.0817 2.45289 63.0062 1.88684 60.709 1.88684C58.4118 1.88684 57.341 2.45761 56.091 3.11328C54.8079 3.79254 53.355 4.56143 50.5908 4.56143C47.8266 4.56143 46.3737 3.79254 45.0907 3.11328C43.8454 2.45289 42.7699 1.88684 40.4727 1.88684C38.1754 1.88684 37.0999 2.45761 35.8546 3.11328C34.5716 3.79254 33.1187 4.56143 30.3545 4.56143C27.5903 4.56143 26.1374 3.79254 24.8544 3.11328C23.6091 2.45289 22.5336 1.88684 20.2363 1.88684C17.9391 1.88684 16.8636 2.45761 15.6183 3.11328C14.3352 3.79254 12.8824 4.56143 10.1182 4.56143C7.35395 4.56143 5.90108 3.79254 4.61803 3.11328C3.37272 2.45289 2.29722 1.88684 0 1.88684V0C2.76422 0 4.21708 0.768886 5.50013 1.44815C6.74544 2.10854 7.82094 2.67459 10.1182 2.67459C12.4154 2.67459 13.4909 2.10382 14.7362 1.44815C16.0192 0.768886 17.4721 0 20.2363 0C23.0005 0 24.4534 0.768886 25.7365 1.44815C26.9818 2.10854 28.0573 2.67459 30.3545 2.67459C32.6517 2.67459 33.7272 2.10382 34.9725 1.44815C36.2556 0.768886 37.7084 0 40.4727 0C43.2369 0 44.6897 0.768886 45.9728 1.44815C47.2181 2.10854 48.2936 2.67459 50.5908 2.67459C52.888 2.67459 53.9635 2.10382 55.2089 1.44815C56.4919 0.768886 57.9448 0 60.709 0C63.4732 0 64.9261 0.768886 66.2091 1.44815C67.4544 2.10854 68.5299 2.67459 70.8272 2.67459C73.1244 2.67459 74.1952 2.10382 75.4452 1.44815C76.7282 0.768886 78.1811 0 80.9453 0C83.7095 0 85.1624 0.768886 86.4454 1.44815C87.6908 2.10854 88.7663 2.67459 91.0635 2.67459C93.3607 2.67459 94.4362 2.10382 95.6815 1.44815C96.9646 0.768886 98.4174 0 101.182 0C103.946 0 105.399 0.768886 106.682 1.44815C107.927 2.10854 109.003 2.67459 111.3 2.67459V4.56143Z" fill="#FFBA02"/>
</svg>
